# xmcd
# Track frame offsets:
# 150
# 12785
# 27846
# 44076
# 61320
# 76943
# 92674
# 104385
# 123508
# 137456
# 150617
# 163886
# 179752
#
# Disc length: 2582 seconds
# Revision: 0
# Processed by: cddbd v1.5.2PL0 Copyright (c) Steve Scherf et al.
# Submitted via: VisiTrax 2.11.3.279 - For more info visit www.synapsa.com
#
DISCID=a70a140d
DTITLE=Campbell, Glen - Glen Campbell - The Legacy (1961-2017) - Disc 4 of 4
DYEAR=2017
DGENRE=Country - Compilation
TTITLE0=You'll Never Walk Alone
TTITLE1=People Get Ready
TTITLE2=Amazing Grace
TTITLE3=Lean On Me
TTITLE4=Times Like These
TTITLE5=These Days
TTITLE6=Good Riddance (Time Of Your Life)
TTITLE7=Ghost On The Canvas
TTITLE8=Waiting On The Comin' Of My Lord
TTITLE9=I'm Not Gonna Miss You
TTITLE10=Everybody's Talkin'
TTITLE11=It Won't Bring Her Back
TTITLE12=Adiós
EXTD=
EXTT0=
EXTT1=
EXTT2=
EXTT3=
EXTT4=
EXTT5=
EXTT6=
EXTT7=
EXTT8=
EXTT9=
EXTT10=
EXTT11=
EXTT12=
PLAYORDER=
